<?xml version="1.0" encoding="utf-8"?>
<svg viewBox="62.628 3.7 20.767 23.48" xmlns="http://www.w3.org/2000/svg" >
    <path d="M 53.03 1.873 L 33.03 1.873 L 33.03 4.603 L 40.05 10.62 L 41.073 21.873 L 44.987 21.873 L 46.01 10.62 L 53.03 4.603 L 53.03 1.873 Z M 52.03 2.873 L 52.03 3.873 L 34.03 3.873 L 34.03 2.873 L 52.03 2.873 Z M 51.178 4.873 L 45.345 9.873 L 40.715 9.873 L 34.882 4.873 L 51.178 4.873 Z M 44.073 20.873 L 41.987 20.873 L 41.077 10.873 L 44.982 10.873 L 44.073 20.873 Z" style="fill: rgb(108, 108, 108);" transform="matrix(1, 0, 0, 1, 29.598226, 1.827167)" />
    <path d="M 2.6474609851837156 20.57699966430664 L 5.895898485183715 20.57699966430664 Q 6.5919922351837155 20.57699966430664 7.1881836414337155 20.39975357055664 Q 7.7843750476837155 20.22250747680664 8.216210985183714 19.87446060180664 Q 8.648046922683715 19.53285903930664 8.892968797683714 19.023679351806642 Q 9.137890672683715 18.51449966430664 9.131445360183715 17.84418716430664 Q 9.131445360183715 17.46391372680664 9.025097703933715 17.11908950805664 Q 8.918750047683716 16.77426528930664 8.712500047683715 16.49067153930664 Q 8.512695360183717 16.22641372680664 8.216210985183714 16.01694107055664 Q 7.919726610183716 15.80746841430664 7.500781297683716 15.69789810180664 L 7.500781297683716 15.685007476806641 Q 7.7843750476837155 15.56899185180664 8.000293016433716 15.42397232055664 Q 8.216210985183714 15.27895278930664 8.390234422683715 15.08559341430664 Q 8.635156297683714 14.821335601806641 8.767285203933715 14.476511383056641 Q 8.899414110183717 14.13168716430664 8.905859422683715 13.73207778930664 Q 8.905859422683715 13.074655914306641 8.657714891433717 12.594480133056642 Q 8.409570360183714 12.114304351806641 7.971289110183715 11.80492935180664 Q 7.533007860183716 11.495554351806641 6.933593797683716 11.34408950805664 Q 6.3341797351837155 11.19262466430664 5.650976610183715 11.19262466430664 L 2.6474609851837156 11.19262466430664 Z M 4.2072266101837155 16.33598403930664 L 5.986132860183716 16.33598403930664 Q 6.3664062976837155 16.34242935180664 6.662890672683716 16.44877700805664 Q 6.959375047683715 16.55512466430664 7.165625047683715 16.74848403930664 Q 7.371875047683716 16.94184341430664 7.475000047683715 17.21576919555664 Q 7.578125047683716 17.48969497680664 7.578125047683716 17.84418716430664 Q 7.578125047683716 18.17934341430664 7.452441453933716 18.45326919555664 Q 7.326757860183715 18.72719497680664 7.094726610183716 18.91410903930664 Q 6.8820312976837155 19.09457778930664 6.579101610183716 19.19770278930664 Q 6.276171922683716 19.30082778930664 5.908789110183716 19.30082778930664 L 4.2072266101837155 19.30082778930664 Z M 4.2072266101837155 15.156491851806642 L 4.2072266101837155 12.475241851806642 L 5.670312547683716 12.475241851806642 Q 6.069921922683716 12.48168716430664 6.3986328601837155 12.56869888305664 Q 6.727343797683716 12.655710601806641 6.9464844226837155 12.849069976806641 Q 7.1398437976837155 13.00375747680664 7.246191453933715 13.24545669555664 Q 7.352539110183716 13.48715591430664 7.352539110183716 13.815866851806641 Q 7.352539110183716 14.125241851806642 7.2365234851837155 14.363718414306641 Q 7.120507860183715 14.60219497680664 6.920703172683716 14.769773101806642 Q 6.701562547683715 14.95668716430664 6.3825195789337155 15.05336685180664 Q 6.063476610183716 15.15004653930664 5.683203172683715 15.156491851806642 Z" transform="matrix(0.968699038028717, 0, 0, 1, 74.07523345947266, 3.075896978378296)" style="fill: rgb(108, 108, 108); white-space: pre;" />
</svg>