<?xml version="1.0" encoding="utf-8"?>
<svg viewBox="25.828 32.415 20.767 23.48" xmlns="http://www.w3.org/2000/svg">
  <path d="M 45.828 32.415 L 25.828 32.415 L 25.828 35.145 L 32.848 41.162 L 33.871 52.415 L 37.785 52.415 L 38.808 41.162 L 45.828 35.145 L 45.828 32.415 Z M 44.828 33.415 L 44.828 34.415 L 26.828 34.415 L 26.828 33.415 L 44.828 33.415 Z M 43.976 35.415 L 38.143 40.415 L 33.513 40.415 L 27.68 35.415 L 43.976 35.415 Z M 36.871 51.415 L 34.785 51.415 L 33.875 41.415 L 37.78 41.415 L 36.871 51.415 Z" style="fill: rgb(108, 108, 108);"/>
  <path d="M 8.996093797683717 17.68949966430664 L 7.442773485183715 17.68949966430664 Q 7.404101610183716 18.11489028930664 7.275195360183716 18.443601226806642 Q 7.146289110183716 18.77231216430664 6.933593797683716 18.991452789306642 Q 6.714453172683715 19.217038726806642 6.405078172683716 19.33305435180664 Q 6.095703172683716 19.44906997680664 5.696093797683716 19.44906997680664 Q 5.360937547683715 19.44906997680664 5.099902391433716 19.35561294555664 Q 4.838867235183716 19.26215591430664 4.639062547683716 19.08168716430664 Q 4.445703172683716 18.91410903930664 4.307128953933716 18.68207778930664 Q 4.168554735183715 18.45004653930664 4.0783203601837155 18.16645278930664 Q 3.9623047351837157 17.82485122680664 3.907519578933716 17.412351226806642 Q 3.852734422683716 16.99985122680664 3.852734422683716 16.52934341430664 L 3.852734422683716 15.233835601806641 Q 3.852734422683716 14.853562164306641 3.8946289539337156 14.48940200805664 Q 3.9365234851837156 14.125241851806642 4.020312547683716 13.802976226806642 Q 4.129882860183716 13.435593414306641 4.300683641433716 13.13588638305664 Q 4.471484422683716 12.836179351806642 4.729296922683716 12.64926528930664 Q 4.9162109851837155 12.494577789306641 5.1579102039337155 12.410788726806642 Q 5.3996094226837155 12.32699966430664 5.702539110183715 12.32699966430664 Q 6.134375047683716 12.32699966430664 6.443750047683715 12.452683258056641 Q 6.7531250476837155 12.578366851806642 6.965820360183716 12.816843414306641 Q 7.1720703601837155 13.05531997680664 7.291308641433716 13.39369888305664 Q 7.410546922683715 13.73207778930664 7.449218797683716 14.15102310180664 L 8.996093797683717 14.15102310180664 Q 8.925195360183714 13.448484039306642 8.683496141433714 12.87485122680664 Q 8.441796922683714 12.301218414306641 8.022851610183714 11.895163726806642 Q 7.610351610183716 11.495554351806641 7.0270508289337155 11.276413726806641 Q 6.443750047683715 11.057273101806642 5.702539110183715 11.057273101806642 Q 5.154687547683716 11.057273101806642 4.693847703933716 11.205515289306641 Q 4.233007860183715 11.35375747680664 3.852734422683716 11.61801528930664 Q 3.4531250476837156 11.90805435180664 3.1469727039337156 12.317331695556641 Q 2.8408203601837156 12.726609039306641 2.6474609851837156 13.22934341430664 Q 2.466992235183716 13.68051528930664 2.376757860183716 14.189694976806642 Q 2.2865234851837157 14.69887466430664 2.2865234851837157 15.24672622680664 L 2.2865234851837157 16.52934341430664 Q 2.2865234851837157 17.10297622680664 2.379980516433716 17.63149185180664 Q 2.473437547683716 18.16000747680664 2.660351610183716 18.61117935180664 Q 2.847265672683716 19.06879653930664 3.121191453933716 19.45229263305664 Q 3.395117235183716 19.83578872680664 3.762500047683716 20.10649185180664 Q 4.1427734851837155 20.39653091430664 4.629394578933716 20.554441070556642 Q 5.116015672683716 20.71235122680664 5.696093797683716 20.71235122680664 Q 6.405078172683716 20.71235122680664 6.988378953933715 20.49643325805664 Q 7.571679735183715 20.280515289306642 7.997070360183716 19.88090591430664 Q 8.416015672683717 19.48774185180664 8.673828172683717 18.93022232055664 Q 8.931640672683717 18.37270278930664 8.996093797683717 17.68949966430664 Z" transform="matrix(0.968699038028717, 0, 0, 1, 37.274871826171875, 31.79093360900879)" style="fill: rgb(108, 108, 108); white-space: pre;"/>
</svg>